P3
# Created by SimpleImage program. OOD Assignment 4
2 2
255
84
84
84
103
103
103
54
54
54
196
196
196
