P3
# Created by SimpleImage program. OOD Assignment 4
2 2
255
111
111
111
110
110
110
93
93
93
174
174
174
