P3
# Created by David and Nick
5 5
255
0
0
0
128
128
128
0
255
0
128
128
128
255
0
0
128
128
128
0
0
0
0
255
0
255
0
0
128
128
128
0
0
255
0
0
255
0
0
0
255
0
255
255
0
255
128
128
128
255
0
0
255
255
255
0
0
0
128
128
128
255
0
0
128
128
128
255
255
255
128
128
128
0
0
0
